<?xml version="1.0" encoding="UTF-8"?>
<svg xmlns="http://www.w3.org/2000/svg" xmlns:xlink="http://www.w3.org/1999/xlink" width="885px" height="249px" viewBox="0 0 885 249" version="1.1">
<g id="surface1">
<path style=" stroke:none;fill-rule:nonzero;fill:rgb(3.921569%,40.784314%,35.294119%);fill-opacity:1;" d="M 141.042969 21.511719 L 143.8125 21.511719 C 153.753906 21.5 163.675781 21.722656 173.609375 22.175781 L 175.425781 22.257812 L 184.265625 22.6875 L 184.617188 22.707031 C 191.222656 23.058594 198.976562 23.640625 204.21875 28.148438 L 204.632812 28.488281 C 211.367188 34.191406 211.449219 45.097656 212.136719 53.230469 C 212.636719 59.320312 212.941406 65.421875 213.167969 71.527344 L 213.179688 71.933594 L 213.339844 76.59375 L 213.402344 78.347656 C 213.585938 83.335938 213.566406 88.328125 213.566406 93.320312 L 213.570312 95.894531 C 213.585938 101.898438 213.527344 107.886719 213.214844 113.882812 L 213.179688 114.636719 L 212.925781 118.921875 L 212.882812 119.546875 C 212.019531 132.789062 212.019531 132.789062 210.804688 137.046875 L 210.574219 137.921875 C 209.851562 140.59375 208.816406 142.902344 207 145.003906 C 206.808594 145.230469 206.617188 145.460938 206.429688 145.691406 C 201.960938 150.964844 194.742188 151.574219 188.3125 152.128906 C 185.335938 152.367188 182.351562 152.480469 179.371094 152.621094 L 177.453125 152.710938 L 151.1875 153.761719 L 149.816406 153.804688 C 142.191406 154.058594 134.5625 154.128906 126.933594 154.136719 L 124.839844 154.140625 C 119.9375 154.148438 115.035156 154.113281 110.132812 153.945312 L 109.539062 153.925781 C 82.101562 152.972656 82.101562 152.972656 76 146.535156 C 73.609375 143.796875 72.351562 140.390625 71.5625 136.886719 L 71.464844 136.472656 C 70.753906 133.136719 70.527344 129.691406 70.226562 126.300781 L 70.164062 125.601562 C 69.570312 119.003906 69.121094 112.40625 68.820312 105.789062 L 68.804688 105.464844 L 68.609375 100.695312 L 68.597656 100.371094 C 68.410156 95.398438 68.414062 90.425781 68.417969 85.449219 L 68.417969 84.457031 C 68.417969 77.851562 68.449219 71.257812 68.769531 64.664062 L 68.804688 63.941406 L 69.082031 58.347656 L 69.101562 57.96875 L 69.648438 49.511719 L 69.679688 49.15625 C 70.289062 41.59375 71.707031 33.59375 77.605469 28.308594 C 78.117188 27.878906 78.636719 27.523438 79.214844 27.183594 L 79.476562 27.023438 C 83.5 24.585938 88.207031 23.734375 92.800781 23.132812 L 93.367188 23.058594 C 98.070312 22.480469 102.851562 22.414062 107.585938 22.238281 L 109.710938 22.15625 L 117.613281 21.875 L 117.949219 21.863281 C 125.648438 21.613281 133.339844 21.5 141.042969 21.511719 Z M 181.082031 30.242188 L 180.726562 30.351562 C 178.277344 31.132812 176.109375 32.472656 174.011719 33.941406 L 173.753906 34.121094 C 171.453125 35.734375 169.222656 37.433594 167.042969 39.199219 L 165.988281 40.042969 L 164.261719 41.441406 L 163.929688 41.710938 L 163.59375 41.984375 L 161.449219 43.691406 C 160.722656 44.257812 160.007812 44.839844 159.308594 45.441406 C 158.519531 46.117188 157.710938 46.769531 156.890625 47.410156 C 156.167969 47.972656 155.457031 48.550781 154.75 49.128906 C 153.804688 49.90625 152.84375 50.648438 151.863281 51.378906 C 151.035156 51.992188 150.21875 52.625 149.40625 53.261719 C 148.304688 54.125 147.1875 54.953125 146.039062 55.761719 L 145.125 56.410156 C 143.519531 57.554688 141.890625 58.65625 140.238281 59.738281 L 139.496094 60.222656 C 131.378906 65.539062 123.398438 70.058594 114.078125 72.867188 L 114.078125 72.542969 L 114.425781 72.417969 C 114.910156 72.210938 115.304688 71.960938 115.738281 71.667969 L 116.234375 71.328125 L 116.761719 70.964844 L 117.304688 70.59375 C 122.375 67.492188 122.375 67.492188 125.96875 63.054688 C 125.828125 62.707031 125.828125 62.707031 125.648438 62.410156 L 125.234375 62.480469 C 119.273438 63.460938 113.402344 63.714844 107.363281 63.773438 C 97.269531 63.84375 97.269531 63.84375 88.210938 67.878906 L 87.835938 68.128906 L 87.566406 68.363281 L 87.566406 68.84375 L 96.726562 68.84375 C 96.183594 69.75 96.183594 69.75 95.679688 70.167969 L 95.34375 70.449219 L 94.988281 70.734375 L 94.621094 71.035156 C 91.597656 73.457031 91.597656 73.457031 90.140625 73.507812 C 89.007812 73.101562 88.046875 72.175781 87.140625 71.410156 C 86.433594 70.820312 86.078125 70.714844 85.15625 70.773438 C 83.171875 71.269531 80.800781 72.324219 79.535156 73.992188 C 79.144531 74.652344 79.097656 75.335938 79.214844 76.082031 C 79.667969 77.636719 80.398438 79.480469 81.625 80.585938 L 81.792969 80.324219 L 82.035156 79.972656 L 82.265625 79.628906 C 83.539062 78.324219 86.003906 78.488281 87.707031 78.457031 L 90.5625 78.457031 C 105.582031 78.507812 122.054688 79.167969 136.34375 85.714844 L 137.449219 86.214844 C 141.492188 88.03125 145.359375 90.484375 148.785156 93.292969 L 149.039062 93.5 C 151.347656 95.402344 153.617188 97.425781 155.535156 99.730469 L 155.734375 99.964844 C 159.035156 103.898438 161.476562 108.269531 163.246094 113.078125 L 163.394531 113.480469 C 163.914062 114.890625 164.3125 116.3125 164.652344 117.773438 L 164.75 118.191406 C 165.257812 120.492188 165.394531 122.734375 165.386719 125.082031 L 165.382812 125.515625 C 165.375 127.621094 165.316406 129.675781 164.851562 131.738281 L 164.757812 132.179688 C 163.570312 137.429688 161.292969 142.15625 158.148438 146.5 C 157.769531 146.9375 157.769531 146.9375 157.785156 147.179688 C 164.179688 147.597656 171.535156 144.921875 176.582031 141.066406 L 177.015625 140.742188 C 180.472656 138.03125 182.527344 134.828125 184.457031 130.933594 L 184.679688 130.488281 C 191.609375 116.570312 195.695312 101.058594 199.238281 80.265625 L 199.292969 79.890625 C 199.820312 76.34375 200.195312 72.777344 200.554688 69.207031 L 200.613281 68.59375 C 202.722656 50.648438 202.722656 50.648438 196.695312 34.230469 C 194.527344 31.632812 191.394531 29.75 187.996094 29.382812 C 187.511719 29.359375 187.035156 29.351562 186.554688 29.355469 L 186.03125 29.359375 C 184.304688 29.394531 182.71875 29.726562 181.082031 30.242188 Z M 86.121094 34.261719 C 82.894531 38.613281 82.253906 44.335938 82.234375 49.609375 L 82.230469 50.167969 L 82.226562 51.964844 L 82.226562 52.585938 C 82.222656 56.414062 82.40625 60.207031 82.746094 64.019531 L 82.800781 64.601562 L 82.910156 65.789062 L 83.351562 65.40625 L 83.660156 65.140625 L 84.476562 64.441406 C 90.738281 59.09375 98.515625 59.210938 106.3125 59.058594 C 115.625 58.875 124.917969 58.4375 134.164062 57.261719 C 133.476562 56.285156 132.707031 55.4375 131.855469 54.597656 L 131.503906 54.25 C 130.851562 53.597656 130.171875 52.972656 129.472656 52.367188 C 129.085938 52.03125 128.707031 51.683594 128.328125 51.332031 C 127.613281 50.675781 126.875 50.058594 126.121094 49.445312 C 125.589844 49.011719 125.070312 48.5625 124.554688 48.113281 C 123.722656 47.398438 122.878906 46.710938 122.011719 46.039062 L 120.238281 44.613281 C 118.777344 43.410156 117.269531 42.273438 115.746094 41.140625 L 114.371094 40.105469 C 112.179688 38.453125 109.957031 36.847656 107.683594 35.304688 L 106.933594 34.792969 C 100.710938 30.550781 91.996094 27.203125 86.121094 34.261719 Z M 87.820312 83.953125 L 87.464844 83.976562 C 86.277344 83.984375 86.277344 83.984375 85.15625 84.285156 C 85.230469 85.996094 85.578125 87.628906 85.941406 89.292969 L 86.039062 89.738281 C 88.738281 102.171875 92.285156 115.367188 97.953125 126.792969 L 98.605469 128.136719 C 101.242188 133.601562 104.40625 139.070312 109.257812 142.835938 L 109.511719 143.039062 C 113.457031 146.207031 117.972656 147.746094 122.945312 148.285156 L 124.027344 148.410156 C 126.699219 148.710938 129.339844 148.820312 132.023438 148.820312 L 132.507812 148.820312 C 140.015625 148.804688 147.214844 148.042969 152.800781 142.515625 L 153.21875 142.109375 C 157.828125 137.359375 159.136719 130.070312 159.128906 123.699219 C 159.023438 116.785156 156.304688 109.210938 151.675781 104.070312 L 151.207031 103.539062 C 150.394531 102.632812 149.558594 101.792969 148.625 101.015625 L 148.183594 100.621094 C 144.347656 97.226562 139.796875 94.894531 134.808594 93.777344 L 134.296875 93.65625 C 129.058594 92.632812 123.90625 94.09375 119.222656 96.351562 C 119.222656 95.734375 119.28125 95.511719 119.523438 94.972656 C 120.214844 93.292969 120.449219 91.53125 119.761719 89.804688 C 118.75 87.757812 116.78125 86.542969 114.6875 85.8125 C 106.460938 83.097656 96.386719 83.441406 87.820312 83.957031 Z M 87.820312 83.953125 "/>
<path style=" stroke:none;fill-rule:nonzero;fill:rgb(74.509805%,58.823532%,36.078432%);fill-opacity:1;" d="M 231.371094 140.425781 L 816.550781 140.425781 L 816.550781 146.214844 L 231.371094 146.214844 Z M 231.371094 140.425781 "/>
<path style=" stroke:none;fill-rule:nonzero;fill:rgb(3.921569%,40.784314%,35.294119%);fill-opacity:1;" d="M 265.113281 60.320312 L 265.546875 60.355469 L 266.117188 60.398438 L 266.679688 60.445312 C 267.285156 60.488281 267.882812 60.503906 268.488281 60.5 L 269.082031 60.503906 C 270.011719 60.484375 270.9375 60.398438 271.863281 60.320312 L 273.019531 62.773438 L 273.195312 63.148438 L 275.449219 67.980469 L 281.128906 79.941406 L 281.394531 80.488281 L 281.53125 80.773438 L 282.335938 82.453125 L 286.554688 91.042969 L 287.648438 93.230469 L 288.492188 94.925781 L 289.621094 97.183594 C 289.851562 97.683594 289.851562 97.683594 290.179688 98.121094 L 290.417969 97.652344 L 291.328125 95.882812 L 291.714844 95.125 L 293.632812 91.425781 C 294.6875 89.441406 295.691406 87.433594 296.695312 85.421875 L 297.453125 83.898438 L 301.105469 76.40625 L 301.453125 75.675781 L 308.496094 60.320312 L 308.902344 60.355469 C 309.949219 60.4375 310.984375 60.507812 312.03125 60.5 L 312.367188 60.503906 C 313.105469 60.5 313.835938 60.457031 314.570312 60.398438 L 315.136719 60.355469 L 315.566406 60.320312 L 316.882812 71.085938 L 317.210938 73.941406 L 318.148438 82.058594 L 320.625 102.636719 L 320.675781 103.027344 C 321.144531 106.652344 321.644531 110.273438 322.253906 113.878906 C 322.316406 114.367188 322.316406 114.367188 322.316406 115.332031 L 309.140625 115.332031 L 308.769531 109.800781 C 308.355469 103.917969 307.824219 98.046875 307.25 92.179688 L 307.191406 91.570312 L 306.640625 85.964844 L 306.542969 85.007812 L 306.3125 82.746094 L 306.265625 82.3125 L 306.179688 81.515625 C 306.085938 80.613281 306.070312 79.722656 306.085938 78.816406 L 305.765625 78.816406 L 305.648438 79.210938 C 305.402344 79.898438 305.09375 80.539062 304.773438 81.191406 L 304.570312 81.597656 L 304.148438 82.460938 L 303.042969 84.714844 L 302.824219 85.160156 L 301.285156 88.347656 L 299.492188 92.089844 L 298.214844 94.742188 L 297.96875 95.253906 L 294.867188 101.789062 L 292.328125 107.09375 L 289.90625 112.234375 C 289.429688 113.277344 288.929688 114.308594 288.414062 115.332031 L 285.199219 115.332031 C 283.527344 112.207031 282 109.019531 280.519531 105.800781 C 279.347656 103.257812 278.117188 100.746094 276.886719 98.234375 L 274.796875 93.882812 L 271.0625 86.125 L 269.472656 82.828125 L 269.324219 82.519531 L 268.632812 81.070312 L 268.390625 80.5625 L 268.175781 80.117188 C 268.035156 79.792969 268.035156 79.792969 267.847656 79.621094 C 266.605469 89.324219 265.847656 99.042969 265.167969 108.800781 L 265.09375 109.820312 L 264.960938 111.734375 L 264.902344 112.597656 L 264.875 112.988281 L 264.847656 113.355469 L 264.828125 113.667969 C 264.777344 114.222656 264.703125 114.777344 264.632812 115.332031 L 256.921875 115.332031 L 257.953125 109.339844 C 260.1875 96.550781 262.117188 83.71875 265.113281 60.320312 Z M 426.753906 60.320312 L 427.523438 60.316406 L 427.957031 60.316406 C 428.414062 60.320312 428.859375 60.351562 429.3125 60.398438 C 430.246094 60.484375 431.175781 60.503906 432.117188 60.503906 L 432.625 60.503906 L 433.679688 60.5 L 435.265625 60.503906 C 436.839844 60.503906 438.40625 60.488281 439.980469 60.402344 C 441.882812 60.296875 443.789062 60.285156 445.695312 60.28125 L 447.496094 60.269531 C 452.160156 60.25 457.257812 60.820312 460.816406 64.179688 L 461.160156 64.503906 C 463.507812 66.925781 463.96875 70.082031 463.945312 73.3125 C 463.859375 76.777344 462.40625 79.601562 459.914062 81.984375 C 457.574219 83.976562 454.902344 85.058594 451.980469 85.894531 L 452.421875 86.007812 C 455.722656 86.867188 458.746094 87.882812 461.300781 90.238281 L 461.636719 90.53125 C 463.292969 92.054688 464.398438 94.035156 464.996094 96.191406 L 465.113281 96.605469 C 466.011719 100.484375 465.121094 104.929688 463.082031 108.300781 C 462.605469 109.039062 462.046875 109.699219 461.460938 110.34375 L 461.175781 110.664062 C 459.453125 112.496094 457.085938 113.710938 454.703125 114.417969 L 454.332031 114.527344 C 451.109375 115.414062 447.789062 115.398438 444.476562 115.378906 L 442.597656 115.375 L 439.0625 115.367188 L 435.03125 115.355469 L 426.753906 115.332031 L 426.78125 114.800781 L 426.882812 112.769531 L 426.925781 111.90625 L 427.074219 108.738281 L 427.097656 108.238281 C 427.261719 104.605469 427.261719 100.972656 427.261719 97.335938 L 427.261719 95.789062 L 427.265625 90.347656 L 427.269531 85.355469 L 427.273438 81.003906 L 427.273438 78.433594 C 427.285156 73.515625 427.148438 68.613281 426.914062 63.699219 L 426.890625 63.207031 Z M 439.769531 65.144531 C 438.804688 68.65625 439.429688 73.082031 439.4375 76.699219 L 439.4375 79.273438 L 439.445312 84.285156 L 441.460938 84.320312 L 442.140625 84.335938 C 444.929688 84.402344 447.152344 83.6875 449.203125 81.765625 C 451.382812 79.550781 452.019531 76.816406 452.019531 73.796875 C 451.992188 71.378906 451.417969 69.03125 449.730469 67.238281 C 447.738281 65.363281 445.511719 64.925781 442.871094 64.953125 L 442.289062 64.953125 C 441.425781 64.960938 440.617188 64.988281 439.769531 65.144531 Z M 439.445312 89.113281 L 439.4375 96.546875 L 439.433594 100 L 439.433594 103.011719 L 439.429688 104.601562 C 439.335938 107.644531 439.335938 107.644531 439.609375 110.667969 C 440.328125 111.027344 441.304688 110.871094 442.105469 110.875 L 442.824219 110.886719 C 445.046875 110.929688 446.96875 110.640625 448.765625 109.21875 L 449.242188 108.847656 C 451.230469 107.175781 452.273438 104.316406 452.539062 101.804688 C 452.835938 98.292969 452.410156 94.527344 450.101562 91.726562 C 448.554688 90.082031 446.402344 89.164062 444.152344 89.09375 L 443.496094 89.097656 L 443.144531 89.097656 L 442.039062 89.101562 L 441.285156 89.105469 Z M 775.097656 60.320312 L 775.382812 60.335938 L 775.753906 60.359375 L 776.125 60.378906 C 778.023438 60.488281 779.925781 60.5 781.828125 60.5 L 783.402344 60.5 L 783.742188 60.503906 C 784.539062 60.5 785.328125 60.453125 786.121094 60.402344 C 787.40625 60.316406 788.683594 60.289062 789.96875 60.285156 L 790.3125 60.285156 L 792.109375 60.28125 L 793.566406 60.273438 C 799.289062 60.230469 804.800781 60.316406 809.191406 64.515625 C 811.71875 67.171875 812.597656 70.617188 812.558594 74.191406 C 812.417969 77.757812 811.402344 80.929688 809 83.644531 L 808.742188 83.941406 C 806.535156 86.328125 803.351562 87.542969 800.324219 88.46875 C 803.054688 93.238281 805.882812 97.9375 808.894531 102.539062 L 809.71875 103.804688 L 812.902344 108.679688 L 813.484375 109.570312 L 815.175781 112.148438 L 816.019531 113.429688 L 816.332031 113.902344 L 816.613281 114.332031 L 816.863281 114.707031 C 817.035156 115.007812 817.035156 115.007812 817.035156 115.332031 L 802.414062 115.332031 L 800.003906 110.988281 L 798.335938 108.066406 L 796.808594 105.398438 L 796.644531 105.109375 L 794.082031 100.558594 L 791.828125 96.648438 C 791.097656 95.398438 790.402344 94.136719 789.71875 92.859375 L 789.078125 91.6875 L 788.867188 91.304688 L 788.660156 90.953125 L 788.480469 90.640625 C 788.21875 90.335938 788.019531 90.296875 787.628906 90.238281 L 787.644531 90.640625 L 787.699219 92.640625 L 787.710938 93.03125 L 787.828125 98.367188 L 788.167969 110.367188 L 788.1875 110.800781 L 788.230469 111.574219 C 788.292969 112.828125 788.273438 114.066406 788.273438 115.332031 L 775.097656 115.332031 L 775.34375 109.3125 C 775.644531 102.660156 775.628906 96.007812 775.621094 89.351562 L 775.621094 86.003906 C 775.628906 79.152344 775.617188 72.308594 775.300781 65.460938 L 775.167969 62.167969 L 775.148438 61.609375 Z M 787.953125 64.984375 C 787.832031 67.21875 787.761719 69.453125 787.742188 71.6875 L 787.730469 72.609375 L 787.710938 74.523438 L 787.683594 76.9375 L 787.628906 86.539062 C 789.328125 87.386719 792.402344 86.609375 794.089844 86.046875 C 795.195312 85.625 796.070312 85.074219 796.949219 84.285156 L 797.285156 84.007812 C 799.289062 82.210938 799.960938 79.3125 800.164062 76.726562 C 800.316406 73.585938 800.195312 70.167969 798.234375 67.558594 C 796.34375 65.511719 793.65625 65.140625 791.003906 64.984375 C 790.203125 64.960938 789.398438 64.960938 788.597656 64.972656 L 788.230469 64.980469 Z M 542.761719 60.320312 L 543.203125 60.355469 C 544.285156 60.4375 545.359375 60.507812 546.445312 60.5 L 546.8125 60.503906 C 547.410156 60.503906 547.96875 60.480469 548.554688 60.371094 C 550.019531 60.128906 550.019531 60.128906 550.585938 60.496094 C 551.144531 60.988281 551.601562 61.554688 552.046875 62.152344 C 552.285156 62.46875 552.546875 62.765625 552.8125 63.0625 L 553.070312 63.363281 C 553.457031 63.800781 553.851562 64.230469 554.25 64.664062 L 555.957031 66.574219 C 556.421875 67.101562 556.898438 67.617188 557.375 68.132812 L 558.578125 69.476562 C 559.160156 70.152344 559.765625 70.800781 560.371094 71.453125 C 560.890625 72.015625 561.398438 72.585938 561.898438 73.164062 C 562.3125 73.632812 562.738281 74.09375 563.167969 74.554688 L 564.695312 76.246094 C 565.265625 76.90625 565.859375 77.546875 566.453125 78.1875 L 568.265625 80.179688 L 569.515625 81.550781 L 571.121094 83.320312 L 573.609375 86.054688 L 576.089844 88.78125 L 578.265625 91.15625 L 579.636719 92.652344 L 582.136719 95.371094 L 583.445312 96.789062 L 583.71875 97.085938 L 584.375 97.796875 L 584.382812 86.542969 L 584.386719 81.316406 L 584.390625 76.75 L 584.394531 74.339844 C 584.398438 69.660156 584.335938 64.992188 584.054688 60.320312 L 584.445312 60.355469 C 586.734375 60.542969 589 60.535156 591.285156 60.320312 C 591.300781 62.230469 591.269531 64.136719 591.175781 66.046875 L 591.117188 67.332031 L 590.960938 70.550781 L 590.644531 77.691406 L 590.621094 78.226562 C 590.308594 85.71875 590.253906 93.207031 590.226562 100.707031 L 590.203125 105.507812 L 590.160156 115.332031 C 589.234375 115.386719 588.308594 115.429688 587.382812 115.457031 L 586.441406 115.5 C 583.90625 115.65625 583.90625 115.65625 583.082031 115.113281 C 582.507812 114.59375 582.070312 113.996094 581.65625 113.34375 C 581.433594 113.003906 581.179688 112.707031 580.90625 112.410156 L 580.671875 112.136719 L 580.441406 111.875 L 578.644531 109.785156 C 577.984375 109.011719 577.320312 108.25 576.632812 107.5 C 576.128906 106.949219 575.644531 106.386719 575.175781 105.800781 C 574.394531 104.828125 573.539062 103.925781 572.683594 103.019531 C 572.210938 102.515625 571.753906 102.003906 571.304688 101.480469 L 570.316406 100.371094 L 569.050781 98.945312 C 568.496094 98.304688 567.925781 97.683594 567.351562 97.0625 L 566.140625 95.707031 C 565.597656 95.082031 565.042969 94.476562 564.484375 93.867188 L 563.085938 92.328125 L 560.820312 89.839844 L 560.160156 89.117188 L 555.488281 84.058594 L 553.707031 82.136719 L 551.386719 79.640625 L 551.066406 79.300781 L 550.757812 78.96875 L 550.484375 78.679688 L 549.570312 77.75 L 549.261719 77.445312 L 549.027344 77.210938 C 548.84375 79.957031 548.84375 82.707031 548.84375 85.460938 L 548.84375 87.421875 L 548.847656 90.71875 L 548.847656 94.480469 L 548.84375 97.75 L 548.84375 99.6875 C 548.839844 104.90625 549 110.117188 549.1875 115.332031 L 541.636719 115.332031 L 541.761719 113.410156 L 542.761719 94.421875 L 542.773438 94.089844 C 543.214844 82.835938 543.257812 71.574219 542.761719 60.320312 Z M 739.265625 59.835938 L 739.832031 59.917969 C 741.335938 60.125 742.730469 60.175781 744.25 60 L 744.671875 59.949219 L 745.535156 59.835938 C 746.140625 61.265625 746.699219 62.707031 747.246094 64.15625 L 747.503906 64.84375 L 748.046875 66.289062 L 748.898438 68.554688 L 751.21875 74.75 L 758.421875 93.324219 L 758.914062 94.5625 L 762.410156 103.171875 L 762.558594 103.523438 C 764 106.992188 765.476562 110.441406 767.136719 113.8125 L 767.363281 114.28125 L 767.566406 114.6875 C 767.707031 115.007812 767.707031 115.007812 767.707031 115.332031 L 753.726562 115.332031 L 749.828125 103.863281 L 749.3125 102.347656 L 749.160156 101.898438 C 748.878906 101.0625 748.578125 100.230469 748.265625 99.40625 C 747.246094 99.277344 746.253906 99.222656 745.226562 99.226562 L 744.765625 99.222656 C 744.269531 99.222656 743.769531 99.222656 743.273438 99.226562 L 742.226562 99.222656 C 741.5 99.222656 740.773438 99.222656 740.042969 99.226562 C 739.113281 99.226562 738.179688 99.226562 737.25 99.222656 C 736.53125 99.222656 735.8125 99.222656 735.09375 99.222656 C 734.75 99.226562 734.40625 99.222656 734.0625 99.222656 C 733.582031 99.222656 733.101562 99.222656 732.625 99.226562 L 732.195312 99.222656 C 731.429688 99.226562 730.703125 99.277344 729.949219 99.40625 C 728.703125 102.640625 727.554688 105.894531 726.484375 109.1875 L 726.316406 109.699219 C 725.765625 111.390625 725.226562 113.078125 724.761719 114.792969 C 724.644531 115.171875 724.644531 115.171875 724.484375 115.332031 C 724.238281 115.347656 723.992188 115.351562 723.746094 115.351562 L 723.265625 115.351562 L 722.746094 115.347656 L 722.21875 115.347656 L 720.539062 115.339844 L 719.402344 115.339844 L 716.613281 115.332031 C 716.832031 114.644531 717.089844 113.988281 717.386719 113.332031 L 717.664062 112.707031 L 717.8125 112.371094 C 720.140625 107.160156 722.3125 101.886719 724.46875 96.605469 L 725.722656 93.558594 L 725.917969 93.082031 L 726.679688 91.238281 L 733.457031 74.507812 L 734.375 72.226562 Z M 739.265625 75.761719 C 737.464844 80.003906 735.730469 84.261719 734.105469 88.578125 L 733.675781 89.722656 L 732.851562 91.90625 L 732.722656 92.246094 L 732.375 93.179688 L 732.175781 93.707031 C 732.027344 94.054688 732.027344 94.054688 732.035156 94.257812 L 746.335938 94.257812 L 744.039062 87.589844 L 743.867188 87.117188 L 743.6875 86.628906 L 743.5 86.125 L 740.882812 79.175781 L 740.546875 78.304688 L 740.082031 77.105469 L 739.945312 76.746094 C 739.738281 76.140625 739.738281 76.140625 739.269531 75.761719 Z M 501.308594 60.320312 L 503.222656 60.3125 L 504.179688 60.304688 C 505.28125 60.300781 506.378906 60.320312 507.480469 60.378906 C 510.480469 60.527344 513.476562 60.503906 516.476562 60.5 L 518.933594 60.503906 C 522.242188 60.503906 525.542969 60.488281 528.84375 60.355469 C 530.003906 60.308594 531.160156 60.3125 532.316406 60.320312 L 532.28125 60.636719 C 532.160156 61.683594 532.132812 62.714844 532.136719 63.769531 L 532.136719 64.234375 C 532.136719 65.296875 532.203125 66.339844 532.316406 67.398438 L 519.796875 66.734375 L 519.386719 66.710938 L 514.320312 66.433594 C 514.195312 69.027344 514.121094 71.625 514.082031 74.222656 L 513.839844 83.644531 L 518.578125 83.503906 L 518.9375 83.492188 L 531.996094 83 L 531.960938 83.289062 C 531.847656 84.316406 531.808594 85.328125 531.816406 86.359375 L 531.816406 86.824219 C 531.824219 87.914062 531.867188 88.992188 531.996094 90.078125 L 530.550781 90.015625 L 530.058594 89.996094 L 526.90625 89.839844 C 522.542969 89.601562 518.214844 89.523438 513.839844 89.433594 L 514 109.378906 C 519.289062 109.257812 524.523438 109.117188 529.777344 108.570312 L 530.363281 108.507812 L 530.875 108.453125 C 531.355469 108.414062 531.832031 108.40625 532.316406 108.414062 L 532.285156 108.734375 C 532.167969 109.875 532.132812 111 532.136719 112.144531 L 532.136719 113.574219 C 532.160156 114.160156 532.246094 114.746094 532.316406 115.332031 L 501.308594 115.332031 L 501.550781 109.269531 C 501.84375 102.648438 501.839844 96.027344 501.832031 89.402344 L 501.832031 86.125 C 501.839844 79.292969 501.8125 72.476562 501.511719 65.652344 Z M 603.175781 60.320312 L 605.089844 60.3125 L 606.046875 60.304688 C 607.148438 60.300781 608.25 60.320312 609.351562 60.378906 C 612.347656 60.527344 615.347656 60.503906 618.34375 60.5 L 620.804688 60.503906 C 624.109375 60.503906 627.410156 60.488281 630.714844 60.355469 C 631.871094 60.308594 633.027344 60.3125 634.1875 60.320312 L 634.105469 60.828125 C 633.984375 61.804688 634 62.785156 634.003906 63.769531 L 634.003906 65.40625 C 634.03125 66.074219 634.105469 66.734375 634.1875 67.398438 L 625.382812 66.9375 L 622.054688 66.742188 L 621.699219 66.722656 L 616.191406 66.433594 C 615.9375 72.167969 615.785156 77.902344 615.707031 83.644531 L 620.449219 83.503906 L 620.804688 83.492188 L 633.863281 83 L 633.792969 83.582031 L 633.703125 84.355469 L 633.65625 84.738281 C 633.527344 85.855469 633.472656 86.964844 633.613281 88.082031 L 633.65625 88.441406 L 633.703125 88.800781 L 633.75 89.175781 L 633.863281 90.078125 L 632.429688 90.015625 L 631.9375 89.996094 L 628.734375 89.839844 C 624.386719 89.609375 620.066406 89.523438 615.707031 89.433594 L 615.867188 109.378906 C 621.15625 109.257812 626.390625 109.117188 631.644531 108.570312 L 632.230469 108.507812 L 632.742188 108.453125 C 633.226562 108.414062 633.699219 108.40625 634.1875 108.414062 L 634.105469 109 C 633.996094 110.019531 634 111.03125 634.003906 112.054688 L 634.003906 113.703125 C 634.027344 114.25 634.109375 114.789062 634.1875 115.332031 L 603.175781 115.332031 C 603.175781 114.246094 603.183594 113.179688 603.238281 112.097656 L 603.28125 111.253906 L 603.347656 109.976562 C 603.699219 103.144531 603.6875 96.308594 603.6875 89.46875 L 603.691406 86.617188 C 603.707031 78.8125 603.679688 71 603.226562 63.207031 C 603.167969 62.242188 603.160156 61.285156 603.175781 60.320312 Z M 359.589844 63.054688 C 359.214844 64.339844 358.808594 65.613281 358.398438 66.882812 L 357.019531 71.257812 L 355.574219 71.257812 L 355.332031 70.746094 C 354.03125 68.03125 352.542969 66.066406 349.628906 64.984375 C 347.121094 64.152344 344.304688 64.238281 341.886719 65.328125 C 340.382812 66.148438 339.285156 67.308594 338.542969 68.84375 L 338.378906 69.179688 C 337.71875 70.78125 337.890625 72.792969 338.503906 74.378906 C 338.816406 75.027344 339.183594 75.550781 339.667969 76.082031 L 339.976562 76.433594 C 342.398438 79.007812 345.824219 80.476562 348.960938 81.980469 C 353.570312 84.183594 353.570312 84.183594 355.574219 85.734375 L 355.839844 85.9375 C 356.359375 86.335938 356.855469 86.75 357.34375 87.183594 L 357.640625 87.449219 C 360.269531 89.925781 361.90625 93.164062 362.046875 96.78125 C 362.0625 97.34375 362.070312 97.90625 362.070312 98.472656 L 362.074219 98.796875 C 362.101562 103.28125 360.457031 107.3125 357.414062 110.589844 C 353.089844 114.941406 346.925781 116.433594 340.964844 116.488281 C 336.71875 116.480469 331.398438 115.980469 327.9375 113.238281 L 328.199219 112.113281 L 328.285156 111.746094 L 328.816406 109.59375 C 329.386719 107.390625 329.832031 105.191406 330.1875 102.945312 L 331.957031 102.945312 L 332.164062 103.558594 C 332.679688 105.050781 333.179688 106.382812 334.207031 107.609375 L 334.445312 107.941406 C 335.898438 109.816406 338.175781 110.742188 340.421875 111.246094 C 342.746094 111.523438 345.175781 111.503906 347.378906 110.667969 L 347.753906 110.53125 C 349.328125 109.859375 350.515625 108.484375 351.238281 106.96875 L 351.4375 106.550781 C 352.203125 104.65625 352.199219 102.179688 351.4375 100.285156 C 351.117188 99.652344 350.75 99.128906 350.273438 98.601562 L 349.9375 98.222656 C 347.304688 95.40625 343.429688 93.820312 339.984375 92.214844 C 335.308594 90.027344 331.316406 87.042969 329.175781 82.214844 C 327.644531 77.957031 328.035156 72.738281 329.890625 68.648438 C 331.941406 64.351562 335.546875 61.765625 339.859375 60.125 C 346.128906 57.996094 354.289062 58.984375 359.589844 63.054688 Z M 399.4375 63.054688 C 399.15625 64.039062 398.84375 65.011719 398.515625 65.980469 C 397.925781 67.726562 397.398438 69.492188 396.867188 71.257812 L 395.421875 71.257812 L 395.179688 70.746094 C 393.878906 68.03125 392.390625 66.066406 389.476562 64.984375 C 386.96875 64.152344 384.152344 64.238281 381.734375 65.328125 C 380.097656 66.214844 378.808594 67.605469 378.089844 69.328125 C 377.625 70.898438 377.683594 72.996094 378.390625 74.476562 C 378.621094 74.859375 378.867188 75.234375 379.128906 75.601562 C 379.355469 75.921875 379.355469 75.921875 379.503906 76.265625 C 379.722656 76.644531 379.925781 76.710938 380.320312 76.886719 C 380.503906 77.046875 380.683594 77.210938 380.859375 77.378906 C 383.4375 79.65625 386.808594 81.070312 389.898438 82.519531 C 394.875 84.859375 399.378906 88.105469 401.335938 93.441406 C 401.839844 95.0625 401.914062 96.671875 401.910156 98.363281 L 401.910156 98.707031 C 401.898438 101.601562 401.398438 104.0625 400.082031 106.644531 L 399.820312 107.160156 C 397.542969 111.335938 393.472656 114.007812 389.015625 115.382812 C 382.609375 117.261719 374.832031 117.027344 368.828125 113.953125 C 368.457031 113.738281 368.121094 113.507812 367.785156 113.242188 L 368.035156 112.164062 L 368.121094 111.804688 L 368.703125 109.386719 C 369.230469 107.25 369.730469 105.128906 370.035156 102.945312 L 371.804688 102.945312 L 372.007812 103.558594 C 372.527344 105.050781 373.023438 106.382812 374.050781 107.609375 L 374.292969 107.941406 C 375.746094 109.816406 378.023438 110.742188 380.269531 111.246094 C 382.59375 111.523438 385.023438 111.503906 387.226562 110.667969 L 387.601562 110.53125 C 389.175781 109.859375 390.363281 108.484375 391.085938 106.96875 L 391.285156 106.550781 C 392.050781 104.65625 392.046875 102.179688 391.285156 100.285156 C 390.964844 99.652344 390.597656 99.128906 390.121094 98.601562 L 389.808594 98.253906 C 387.730469 96.039062 384.851562 94.632812 382.140625 93.339844 L 381.746094 93.152344 L 380.164062 92.40625 C 375.378906 90.164062 371.199219 87.160156 369.019531 82.207031 C 368.347656 80.328125 368.179688 78.425781 368.199219 76.445312 L 368.199219 76.105469 C 368.230469 71.449219 369.734375 67.457031 373.011719 64.085938 C 379.6875 57.734375 392.207031 57.28125 399.4375 63.054688 Z M 671.785156 63.054688 C 671.464844 64.347656 671.046875 65.605469 670.621094 66.867188 L 669.214844 71.257812 L 667.765625 71.257812 L 667.664062 70.96875 C 666.769531 68.550781 665.175781 66.402344 662.785156 65.304688 C 660.117188 64.324219 657.101562 64.03125 654.4375 65.191406 C 652.527344 66.171875 651.140625 67.570312 650.425781 69.628906 C 649.941406 71.519531 650.21875 73.441406 651.15625 75.136719 C 653.417969 78.640625 657.917969 80.511719 661.570312 82.144531 C 666.566406 84.378906 671.472656 87.671875 673.546875 92.964844 C 675.003906 97.277344 674.632812 102.414062 672.625 106.496094 C 670.308594 110.898438 666.382812 113.761719 661.726562 115.28125 C 655.171875 117.300781 647.152344 117.0625 641.035156 113.84375 C 640.316406 113.449219 640.316406 113.449219 640.132812 113.078125 C 640.210938 112.703125 640.300781 112.332031 640.402344 111.964844 L 640.589844 111.261719 L 640.691406 110.886719 C 641.339844 108.472656 641.886719 106.0625 642.3125 103.597656 C 642.378906 103.265625 642.378906 103.265625 642.539062 102.945312 L 644.148438 102.945312 L 644.339844 103.46875 L 644.628906 104.234375 L 644.800781 104.691406 C 645.25 105.839844 645.804688 106.796875 646.558594 107.769531 L 646.863281 108.179688 C 648.347656 109.921875 650.890625 111.085938 653.144531 111.308594 C 656.25 111.511719 659.304688 111.457031 661.773438 109.328125 L 662.144531 108.898438 L 662.417969 108.582031 C 663.726562 107.007812 664.324219 105.105469 664.273438 103.058594 C 664.054688 100.714844 663.148438 98.949219 661.382812 97.417969 C 658.6875 95.222656 655.457031 93.703125 652.316406 92.269531 C 647.742188 90.175781 643.359375 87.019531 641.417969 82.195312 C 639.972656 77.683594 640.21875 72.480469 642.347656 68.222656 C 642.9375 67.089844 643.628906 66.109375 644.46875 65.144531 L 644.726562 64.816406 C 647.421875 61.472656 651.996094 59.726562 656.152344 59.265625 C 661.578125 58.753906 667.367188 59.660156 671.785156 63.054688 Z M 678.691406 60.320312 C 680.902344 60.300781 683.109375 60.304688 685.316406 60.375 C 689.714844 60.519531 694.117188 60.503906 698.519531 60.5 L 700.808594 60.5 L 714.382812 60.355469 C 716.195312 60.296875 718.011719 60.304688 719.824219 60.320312 L 719.789062 60.675781 C 719.589844 62.921875 719.613281 65.152344 719.824219 67.398438 C 718.398438 67.308594 716.972656 67.199219 715.546875 67.070312 C 713.21875 66.859375 710.886719 66.695312 708.550781 66.578125 L 707.707031 66.535156 L 705.6875 66.433594 L 705.667969 79.386719 L 705.660156 85.40625 C 705.589844 99 705.589844 99 706.121094 112.578125 C 706.175781 113.503906 706.167969 114.402344 706.167969 115.332031 L 692.992188 115.332031 C 692.992188 112.945312 692.992188 112.945312 693.058594 111.765625 L 693.097656 110.9375 L 693.164062 109.6875 C 693.464844 104.035156 693.5 98.378906 693.496094 92.722656 L 693.496094 71.886719 C 693.5 70.121094 693.4375 68.355469 693.3125 66.59375 C 691.238281 66.570312 689.183594 66.636719 687.109375 66.78125 L 685.71875 66.875 C 684.140625 66.984375 682.566406 67.109375 680.992188 67.296875 C 680.21875 67.382812 679.46875 67.410156 678.691406 67.398438 L 678.761719 66.996094 C 679.132812 64.699219 679.046875 62.617188 678.691406 60.320312 Z M 475.761719 60.320312 L 476.535156 60.316406 L 476.96875 60.316406 C 477.394531 60.320312 477.8125 60.351562 478.234375 60.398438 C 479.492188 60.511719 480.75 60.503906 482.011719 60.5 L 483.257812 60.503906 C 484.519531 60.503906 485.765625 60.496094 487.019531 60.355469 C 487.457031 60.320312 487.882812 60.316406 488.320312 60.316406 L 488.761719 60.320312 L 489.097656 60.320312 L 489.078125 60.648438 C 488.613281 69.28125 488.542969 77.894531 488.5625 86.539062 L 488.5625 90.265625 C 488.546875 101.113281 488.546875 101.113281 488.933594 111.953125 L 489.097656 115.332031 L 475.761719 115.332031 L 476.082031 108.738281 C 476.246094 104.933594 476.269531 101.140625 476.269531 97.335938 L 476.269531 95.789062 L 476.273438 90.347656 L 476.277344 85.355469 L 476.277344 81.003906 L 476.28125 78.433594 C 476.289062 73.515625 476.152344 68.613281 475.921875 63.699219 L 475.898438 63.207031 Z M 475.761719 60.320312 "/>
<path style=" stroke:none;fill-rule:nonzero;fill:rgb(74.509805%,58.823532%,36.078432%);fill-opacity:1;" d="M 283.269531 175.8125 L 283.75 176.078125 C 287.738281 178.449219 290.113281 182.535156 291.304688 186.910156 C 291.453125 187.546875 291.558594 188.191406 291.625 188.839844 L 291.679688 189.289062 C 292.175781 193.941406 291.179688 199.027344 288.253906 202.769531 L 287.929688 203.15625 L 287.585938 203.570312 C 284.421875 207.210938 280.207031 209.34375 275.398438 209.75 C 270.074219 210.011719 265.054688 208.945312 260.984375 205.324219 C 257.410156 202.058594 255.382812 197.652344 255.132812 192.804688 C 254.957031 187.421875 256.449219 182.65625 260.03125 178.597656 C 266.011719 172.285156 275.933594 171.746094 283.269531 175.8125 Z M 265.542969 183.355469 C 263.171875 186.332031 262.324219 189.792969 262.746094 193.566406 C 263.226562 196.640625 264.75 199.0625 267.101562 201.046875 C 269.394531 202.714844 272.289062 203.351562 275.082031 202.949219 C 277.964844 202.433594 280.375 201.03125 282.125 198.671875 C 283.988281 195.800781 284.660156 192.429688 284.042969 189.0625 C 283.625 187.191406 282.945312 185.570312 281.824219 184.015625 L 281.578125 183.671875 C 279.832031 181.480469 277.132812 180.363281 274.433594 179.992188 C 271.171875 179.695312 267.773438 180.929688 265.542969 183.355469 Z M 537.8125 177.492188 L 538.582031 178.226562 L 538.964844 178.582031 C 542.304688 181.789062 543.851562 186.359375 543.953125 190.914062 C 543.996094 196.246094 542.476562 200.902344 538.765625 204.804688 C 534.847656 208.546875 529.953125 209.84375 524.671875 209.785156 C 520.636719 209.6875 516.546875 208.277344 513.519531 205.570312 L 513.121094 205.242188 C 509.71875 202.351562 507.902344 198.042969 507.414062 193.667969 C 507.367188 192.957031 507.359375 192.246094 507.363281 191.535156 L 507.367188 190.960938 C 507.433594 185.941406 509.367188 181.464844 512.929688 177.941406 C 515.519531 175.480469 518.996094 173.925781 522.515625 173.398438 L 522.863281 173.34375 C 528.164062 172.671875 533.753906 173.90625 537.8125 177.492188 Z M 517.679688 183.484375 C 515.25 186.4375 514.71875 189.804688 514.964844 193.507812 C 515.292969 196.265625 516.6875 198.804688 518.761719 200.632812 C 521.140625 202.464844 523.875 203.226562 526.855469 202.996094 C 528.960938 202.691406 530.636719 202.042969 532.316406 200.746094 L 532.652344 200.496094 C 534.78125 198.792969 536.03125 196.015625 536.375 193.355469 C 536.730469 190.046875 536.140625 186.730469 534.058594 184.046875 C 533.703125 183.648438 533.339844 183.265625 532.960938 182.890625 L 532.660156 182.578125 C 531.082031 181.058594 528.707031 180.128906 526.535156 179.996094 L 526.144531 179.96875 C 522.890625 179.859375 519.917969 181.132812 517.679688 183.484375 Z M 517.679688 183.484375 "/>
<path style=" stroke:none;fill-rule:nonzero;fill:rgb(3.921569%,40.784314%,35.294119%);fill-opacity:1;" d="M 234.425781 60.320312 L 235.382812 60.378906 C 239.429688 60.628906 243.558594 60.597656 247.601562 60.320312 C 247.617188 61.644531 247.601562 62.960938 247.535156 64.285156 L 247.515625 64.710938 L 247.429688 66.441406 C 247.078125 73.25 247.09375 80.074219 247.097656 86.890625 L 247.097656 89.261719 C 247.09375 96.105469 247.097656 102.953125 247.449219 109.792969 L 247.515625 111.117188 L 247.554688 111.914062 C 247.613281 113.058594 247.601562 114.183594 247.601562 115.332031 L 234.425781 115.332031 L 234.671875 108.824219 C 234.941406 102.300781 234.957031 95.78125 234.949219 89.253906 L 234.949219 86.132812 C 234.957031 79.371094 234.914062 72.621094 234.628906 65.867188 Z M 234.425781 60.320312 "/>
<path style=" stroke:none;fill-rule:nonzero;fill:rgb(74.509805%,58.823532%,36.078432%);fill-opacity:1;" d="M 405.222656 173.882812 C 421.363281 173.882812 421.363281 173.882812 424.664062 176.132812 L 424.984375 176.347656 C 426.765625 177.703125 427.746094 179.921875 428.039062 182.085938 C 428.195312 184.765625 427.625 187.316406 425.871094 189.414062 C 425.359375 189.953125 424.800781 190.367188 424.183594 190.769531 L 424.53125 190.984375 C 426.9375 192.484375 428.371094 194.121094 429.101562 196.941406 C 429.488281 199.570312 429.097656 202.398438 427.558594 204.605469 C 425.316406 207.574219 422.476562 208.433594 418.878906 209.109375 L 405.222656 209.109375 Z M 412.453125 180.15625 L 412.453125 188.035156 L 414.855469 188.078125 L 415.601562 188.09375 C 417.25 188.109375 418.523438 187.863281 419.761719 186.710938 C 420.535156 185.8125 420.757812 184.8125 420.710938 183.648438 C 420.574219 182.683594 420.21875 181.910156 419.511719 181.230469 C 418.027344 180.132812 416.460938 180.070312 414.671875 180.113281 Z M 412.453125 193.988281 L 412.453125 202.835938 L 415.074219 202.875 L 415.890625 202.894531 C 417.609375 202.914062 419.261719 202.773438 420.566406 201.519531 C 421.457031 200.441406 421.835938 199.238281 421.773438 197.847656 C 421.605469 196.554688 420.992188 195.628906 420.003906 194.792969 C 419.539062 194.515625 419.074219 194.3125 418.558594 194.148438 L 418.296875 194.0625 C 417.75 193.957031 417.210938 193.96875 416.660156 193.972656 L 416.335938 193.972656 L 415.144531 193.976562 Z M 592.25 173.882812 C 610.167969 173.882812 610.167969 173.882812 615.226562 178.386719 L 615.589844 178.703125 C 618.753906 181.65625 620.160156 186.0625 620.367188 190.289062 C 620.539062 195.214844 619.5 200.101562 616.140625 203.851562 C 612.90625 207.304688 608.542969 208.601562 603.980469 209.109375 L 592.25 209.109375 Z M 599.480469 180.15625 L 599.480469 202.835938 C 604.882812 202.847656 604.882812 202.847656 609.441406 200.421875 L 609.746094 200.179688 C 611.785156 198.347656 612.683594 195.320312 612.835938 192.675781 C 612.941406 190.136719 612.679688 187.765625 611.53125 185.464844 L 611.320312 185.042969 C 610.058594 182.746094 608.058594 181.382812 605.59375 180.644531 C 603.582031 180.097656 601.558594 180.15625 599.480469 180.15625 Z M 789.078125 173.882812 C 802.125 173.882812 802.125 173.882812 804.683594 174.554688 L 805.085938 174.660156 C 809.054688 175.738281 812.738281 178.164062 814.820312 181.785156 C 817.265625 186.308594 817.902344 192.234375 816.488281 197.203125 L 816.390625 197.527344 L 816.300781 197.84375 C 815.695312 199.875 814.707031 201.699219 813.339844 203.316406 L 813.089844 203.636719 C 810.480469 206.867188 806.238281 208.382812 802.253906 208.949219 C 797.882812 209.386719 793.46875 209.109375 789.078125 209.109375 Z M 796.308594 180.15625 L 796.308594 202.835938 C 800.515625 202.835938 803.65625 202.792969 806.785156 199.9375 C 808.640625 198.015625 809.550781 195.171875 809.644531 192.539062 L 809.664062 192.058594 C 809.734375 188.628906 808.882812 185.476562 806.507812 182.941406 C 803.625 180.238281 800.042969 180.15625 796.308594 180.15625 Z M 125.648438 173.882812 C 141.878906 173.882812 141.878906 173.882812 145.5 177.148438 C 147.433594 179.136719 148.234375 181.679688 148.203125 184.40625 L 148.207031 184.914062 C 148.199219 187.707031 147.183594 190.140625 145.230469 192.117188 C 144.585938 192.710938 143.902344 193.199219 143.160156 193.667969 L 145.773438 198.753906 L 146.132812 199.433594 L 149.390625 205.445312 L 150.273438 207.058594 L 150.550781 207.566406 L 150.804688 208.035156 L 151.035156 208.453125 C 151.195312 208.785156 151.195312 208.785156 151.195312 209.109375 L 143.160156 209.109375 L 138.214844 199.074219 C 137.804688 198.214844 137.378906 197.359375 136.941406 196.511719 C 136.574219 195.792969 136.574219 195.792969 136.574219 195.4375 L 132.878906 195.4375 L 132.878906 209.109375 L 125.648438 209.109375 Z M 132.878906 180.15625 L 132.878906 189.324219 C 136.5625 189.515625 136.5625 189.515625 139.582031 187.941406 C 140.660156 186.777344 140.84375 185.644531 140.808594 184.082031 C 140.6875 182.902344 140.226562 182.035156 139.304688 181.28125 C 137.355469 179.8125 135.347656 180.15625 132.878906 180.15625 Z M 132.878906 180.15625 "/>
<path style=" stroke:none;fill-rule:nonzero;fill:rgb(3.921569%,40.784314%,35.294119%);fill-opacity:1;" d="M 141.738281 101.445312 C 142.222656 101.882812 142.691406 102.332031 143.160156 102.785156 L 143.617188 103.214844 C 148.433594 107.875 151.082031 114.464844 151.230469 121.128906 C 151.304688 127.179688 149.796875 134.101562 145.570312 138.65625 L 145.355469 138.894531 C 143.019531 141.457031 139.867188 143.171875 136.363281 143.347656 C 133.609375 143.433594 130.84375 143.449219 128.21875 142.515625 L 128.21875 142.195312 L 128.703125 142.121094 C 130.566406 141.824219 132.671875 141.390625 134.003906 139.941406 L 134.003906 139.460938 C 132.699219 139.394531 131.492188 139.507812 130.207031 139.710938 C 127.339844 140.160156 127.339844 140.160156 126.289062 139.460938 C 126.367188 138.773438 126.765625 138.46875 127.253906 138.011719 C 127.476562 137.804688 127.691406 137.589844 127.898438 137.367188 L 127.898438 137.046875 C 126.738281 137.066406 125.855469 137.429688 124.820312 137.914062 C 123.132812 138.699219 121.273438 139.042969 119.457031 138.480469 C 118.144531 137.859375 117.050781 136.988281 116.433594 135.652344 C 116.222656 134.898438 116.28125 134.121094 116.328125 133.347656 C 116.960938 133.460938 117.492188 133.765625 118.054688 134.0625 C 119.34375 134.714844 120.507812 135.21875 121.953125 134.792969 C 122.722656 134.464844 123.464844 134.066406 124.207031 133.675781 C 127.425781 131.980469 130.242188 131.746094 133.742188 132.636719 C 135.960938 133.199219 137.910156 133.277344 139.949219 132.109375 C 142.585938 130.421875 144.148438 128.230469 145.050781 125.234375 L 145.144531 124.914062 C 145.6875 122.996094 145.792969 121.070312 145.78125 119.089844 L 145.78125 118.726562 C 145.765625 114.210938 144.71875 110.382812 141.875 106.804688 L 141.535156 106.367188 C 138.492188 102.523438 134.402344 99.8125 129.503906 99.085938 C 128.945312 99.039062 128.390625 99.023438 127.828125 99.023438 L 127.378906 99.027344 C 125.765625 99.054688 124.308594 99.453125 123.136719 100.632812 C 122.195312 101.679688 122.027344 102.546875 122.054688 103.949219 C 122.269531 106.136719 123.65625 108.160156 125.328125 109.539062 C 127.597656 111.210938 130.085938 112.105469 132.90625 111.722656 C 134.042969 111.5 135.003906 111.101562 136.011719 110.546875 C 136.25 110.417969 136.492188 110.300781 136.734375 110.183594 L 137.054688 110.34375 C 135.800781 112.269531 134.601562 113.117188 132.398438 113.722656 C 131.46875 113.902344 130.53125 114.03125 129.59375 114.15625 C 126.246094 114.617188 123.496094 115.914062 121.402344 118.625 C 120.515625 119.816406 119.890625 120.957031 119.542969 122.410156 L 120.023438 122.246094 C 120.363281 122.230469 120.699219 122.21875 121.039062 122.21875 L 121.578125 122.210938 C 122.132812 122.25 122.558594 122.386719 123.078125 122.570312 C 124.148438 122.726562 124.894531 122.472656 125.808594 121.925781 L 126.128906 121.765625 C 126.050781 122.207031 125.957031 122.609375 125.800781 123.03125 C 125.566406 123.8125 125.515625 124.390625 125.878906 125.132812 C 126.34375 125.691406 126.855469 126.140625 127.410156 126.601562 C 127.914062 127.082031 128.046875 127.378906 128.089844 128.078125 L 128.078125 128.640625 L 128.070312 129.210938 L 128.058594 129.648438 L 127.738281 129.808594 L 127.652344 129.515625 C 127.359375 128.464844 127.359375 128.464844 126.613281 127.71875 C 126.351562 127.671875 126.089844 127.632812 125.828125 127.597656 C 125.34375 127.515625 125.085938 127.472656 124.730469 127.125 L 124.277344 126.445312 C 123.527344 125.378906 122.394531 124.902344 121.148438 124.660156 C 119.09375 124.464844 117.285156 125.390625 115.6875 126.589844 C 115.875 125.570312 116.167969 124.660156 116.601562 123.714844 L 116.785156 123.308594 C 117.449219 121.871094 118.226562 120.496094 119.007812 119.121094 C 121.105469 115.429688 121.371094 112.722656 120.265625 108.675781 L 119.839844 107.164062 C 119.292969 105.078125 119.261719 102.667969 120.183594 100.695312 C 121.46875 98.496094 123.183594 97.25 125.597656 96.550781 C 131.277344 95.132812 137.46875 97.738281 141.738281 101.445312 Z M 141.738281 101.445312 "/>
<path style=" stroke:none;fill-rule:nonzero;fill:rgb(74.509805%,58.823532%,36.078432%);fill-opacity:1;" d="M 752.601562 173.882812 L 759.832031 173.882812 L 759.839844 175.992188 L 759.871094 182.90625 L 759.890625 187.09375 L 759.90625 190.75 L 759.914062 192.683594 L 759.921875 194.503906 L 759.925781 195.484375 C 759.945312 197.570312 760.285156 199.496094 761.742188 201.070312 C 763.449219 202.652344 765.351562 202.933594 767.59375 202.886719 C 769.257812 202.804688 770.851562 202.152344 772.003906 200.929688 C 773.574219 198.957031 773.699219 196.699219 773.703125 194.261719 L 773.707031 193.589844 L 773.71875 191.785156 L 773.726562 189.894531 L 773.746094 186.320312 L 773.769531 182.25 L 773.8125 173.882812 L 781.042969 173.882812 L 781.058594 182.53125 L 781.066406 186.550781 L 781.074219 190.054688 L 781.078125 191.90625 C 781.097656 197.066406 781.074219 202.183594 777.261719 206.140625 C 774.3125 209.039062 770.308594 209.808594 766.332031 209.800781 C 762.511719 209.742188 758.855469 208.636719 756.109375 205.894531 C 753.285156 202.9375 752.546875 199.054688 752.566406 195.101562 L 752.566406 194.402344 L 752.570312 192.523438 L 752.574219 190.554688 L 752.582031 186.832031 L 752.585938 182.59375 Z M 368.75 173.882812 L 375.980469 173.882812 L 375.988281 175.976562 L 376.019531 182.84375 L 376.035156 187.003906 L 376.050781 190.632812 L 376.058594 192.550781 L 376.070312 194.363281 L 376.070312 195.335938 C 376.09375 197.550781 376.523438 199.578125 378.050781 201.246094 C 379.453125 202.496094 381.121094 202.898438 382.949219 202.886719 L 383.359375 202.882812 C 385.140625 202.847656 386.636719 202.328125 387.996094 201.136719 C 389.691406 199.328125 389.847656 196.9375 389.851562 194.589844 L 389.855469 193.910156 L 389.863281 192.074219 L 389.875 190.15625 L 389.894531 186.523438 L 389.914062 182.386719 L 389.960938 173.882812 L 397.191406 173.882812 L 397.207031 182.816406 L 397.214844 186.964844 L 397.21875 190.585938 L 397.222656 192.5 L 397.226562 194.308594 L 397.230469 195.273438 C 397.226562 197.152344 397.070312 199.042969 396.515625 200.84375 L 396.414062 201.1875 C 395.472656 204.128906 393.519531 206.574219 390.792969 208.027344 C 389.59375 208.636719 388.378906 209.117188 387.066406 209.429688 L 386.613281 209.539062 C 382.488281 210.34375 377.785156 209.785156 374.214844 207.5 C 371.347656 205.480469 369.71875 202.628906 369.007812 199.230469 C 368.761719 197.78125 368.726562 196.367188 368.730469 194.898438 L 368.730469 194.210938 L 368.734375 192.347656 L 368.734375 190.398438 L 368.738281 186.714844 L 368.742188 182.515625 Z M 703.917969 173.882812 L 711.632812 173.882812 L 712.757812 177.128906 L 716.28125 187.140625 L 718.128906 192.351562 L 718.46875 193.3125 L 719.15625 195.253906 L 720.753906 199.777344 L 721.273438 201.242188 L 722.800781 205.546875 L 723.054688 206.261719 L 723.515625 207.554688 L 723.710938 208.113281 L 723.882812 208.59375 C 724.003906 208.949219 724.003906 208.949219 724.003906 209.109375 L 716.613281 209.109375 L 715.480469 205.800781 L 714.957031 204.261719 L 714.351562 202.496094 L 714.160156 201.9375 L 713.984375 201.421875 L 713.828125 200.964844 C 713.71875 200.582031 713.71875 200.582031 713.71875 200.101562 L 701.828125 200.101562 L 701.667969 201.066406 L 701.453125 201.757812 L 701.320312 202.144531 L 701.179688 202.550781 L 701.03125 202.980469 L 700.566406 204.332031 L 700.101562 205.679688 L 699.8125 206.515625 L 699.679688 206.90625 L 699.5625 207.242188 L 698.9375 209.109375 L 691.546875 209.109375 L 692.355469 206.539062 L 692.535156 206.019531 L 692.730469 205.46875 L 692.933594 204.882812 L 693.480469 203.320312 L 693.824219 202.339844 L 696.867188 193.742188 L 699.539062 186.207031 Z M 707.613281 182.085938 L 706.238281 186.304688 L 705.601562 188.265625 L 704.984375 190.15625 L 704.421875 191.890625 L 704.234375 192.472656 C 704.042969 193.113281 704.042969 193.113281 703.917969 194.148438 L 711.792969 194.148438 L 708.824219 184.84375 L 708.597656 184.152344 L 708.28125 183.191406 L 708.101562 182.648438 C 707.976562 182.222656 707.976562 182.222656 707.613281 182.085938 Z M 153.605469 173.882812 L 161.480469 173.882812 C 161.902344 174.945312 162.304688 175.992188 162.660156 177.074219 L 162.8125 177.527344 L 163.300781 179.003906 L 163.648438 180.054688 L 164.566406 182.820312 L 166.191406 187.722656 L 166.371094 188.257812 L 169.515625 197.558594 L 170.316406 199.941406 C 170.910156 198.683594 171.347656 197.386719 171.785156 196.070312 L 172.027344 195.339844 L 172.679688 193.375 L 173.363281 191.316406 L 174.65625 187.425781 L 176.125 182.996094 L 179.152344 173.882812 L 187.1875 173.882812 C 186.644531 175.691406 186.644531 175.691406 186.355469 176.476562 L 186.160156 177.015625 L 185.949219 177.585938 L 185.726562 178.195312 L 185.132812 179.828125 L 184.503906 181.542969 L 183.125 185.3125 L 182.597656 186.742188 L 180.640625 192.082031 L 179.390625 195.484375 L 175.871094 205.0625 L 175.507812 206.050781 L 175.003906 207.414062 L 174.855469 207.824219 C 174.511719 208.75 174.511719 208.75 174.332031 209.109375 L 166.460938 209.109375 L 163.226562 200.433594 L 160.292969 192.429688 L 160.128906 191.984375 L 159.964844 191.535156 L 159.625 190.621094 L 159.453125 190.160156 L 158.054688 186.359375 L 157.835938 185.761719 L 156.953125 183.363281 L 154.890625 177.800781 L 154.75 177.425781 L 154.121094 175.769531 L 153.910156 175.214844 L 153.730469 174.746094 C 153.605469 174.363281 153.605469 174.363281 153.605469 173.882812 Z M 682.226562 174.523438 L 682.671875 174.769531 C 685.027344 176.167969 686.558594 178.257812 687.53125 180.796875 L 687.53125 181.121094 L 685.667969 181.988281 L 685.039062 182.28125 L 684.125 182.707031 L 683.570312 182.964844 L 683.03125 183.210938 L 682.730469 183.351562 C 682.265625 183.558594 681.9375 183.695312 681.425781 183.695312 C 681.140625 183.269531 681.140625 183.269531 680.832031 182.707031 C 680.300781 181.792969 679.78125 181.160156 678.855469 180.636719 L 678.363281 180.335938 C 677.28125 179.925781 675.917969 179.976562 674.828125 180.300781 C 673.882812 180.738281 673.34375 181.242188 672.949219 182.226562 C 672.8125 183.390625 672.882812 184.167969 673.550781 185.140625 C 674.429688 186.074219 675.460938 186.65625 676.59375 187.222656 L 677.085938 187.476562 C 678.042969 187.960938 679.003906 188.425781 679.980469 188.871094 C 682.125 189.863281 683.9375 191.015625 685.601562 192.703125 L 685.902344 192.996094 C 687.433594 194.625 687.996094 196.898438 688.0625 199.085938 C 687.925781 202.203125 686.898438 204.847656 684.636719 207.019531 C 681.667969 209.453125 677.902344 210.082031 674.15625 209.71875 C 671.027344 209.289062 668.25 207.699219 666.320312 205.214844 C 664.554688 202.734375 664.554688 202.734375 664.554688 201.386719 C 669.96875 198.652344 669.96875 198.652344 670.660156 198.652344 C 670.914062 199.035156 670.914062 199.035156 671.179688 199.546875 C 672.175781 201.304688 673.390625 202.191406 675.320312 202.835938 C 676.730469 202.941406 678.097656 202.96875 679.335938 202.191406 C 680 201.617188 680.402344 200.933594 680.5 200.058594 C 680.546875 199.070312 680.414062 198.328125 679.816406 197.527344 C 678.394531 195.964844 676.488281 195.125 674.617188 194.238281 C 670.96875 192.511719 667.574219 190.671875 666 186.75 C 665.089844 183.871094 665.359375 180.878906 666.71875 178.199219 C 668.003906 175.859375 670.125 174.484375 672.632812 173.726562 C 675.757812 172.855469 679.34375 172.921875 682.226562 174.527344 Z M 313.636719 174.523438 L 314.082031 174.769531 C 316.4375 176.167969 317.96875 178.257812 318.941406 180.796875 L 318.941406 181.121094 L 316.5625 182.21875 L 315.757812 182.59375 L 314.59375 183.128906 L 314.230469 183.300781 C 313.371094 183.695312 313.371094 183.695312 312.835938 183.695312 C 312.582031 183.304688 312.582031 183.304688 312.3125 182.789062 C 311.835938 181.9375 311.410156 181.324219 310.585938 180.796875 L 310.277344 180.597656 C 309.058594 179.933594 307.558594 179.914062 306.238281 180.296875 C 305.308594 180.710938 304.875 181.152344 304.480469 182.085938 C 304.199219 182.933594 304.203125 183.695312 304.558594 184.507812 C 305.332031 185.84375 306.648438 186.542969 307.984375 187.210938 L 308.472656 187.464844 C 309.492188 187.984375 310.523438 188.472656 311.558594 188.953125 C 313.546875 189.875 315.292969 190.980469 316.851562 192.542969 L 317.167969 192.851562 C 318.777344 194.550781 319.402344 196.78125 319.472656 199.085938 C 319.335938 202.203125 318.308594 204.847656 316.046875 207.019531 C 313.078125 209.457031 309.3125 210.082031 305.566406 209.71875 C 302.4375 209.292969 299.660156 207.703125 297.730469 205.214844 C 295.964844 202.734375 295.964844 202.734375 295.964844 201.386719 C 301.378906 198.652344 301.378906 198.652344 302.070312 198.652344 C 302.347656 199.066406 302.347656 199.066406 302.652344 199.617188 C 303.519531 201.101562 304.566406 202.085938 306.195312 202.699219 C 307.609375 203.0625 309.09375 203.019531 310.421875 202.394531 C 311.15625 201.933594 311.660156 201.269531 311.871094 200.421875 C 311.996094 199.316406 311.898438 198.429688 311.226562 197.527344 C 309.757812 195.878906 307.652344 195 305.695312 194.078125 C 302.207031 192.433594 298.890625 190.523438 297.410156 186.75 C 296.519531 183.859375 296.765625 180.886719 298.128906 178.199219 C 299.097656 176.433594 300.554688 175.183594 302.390625 174.363281 L 302.761719 174.179688 C 306.046875 172.6875 310.488281 172.769531 313.636719 174.523438 Z M 87.566406 174.523438 L 88.011719 174.769531 C 90.308594 176.136719 91.992188 178.265625 92.871094 180.796875 L 92.871094 181.121094 L 91.011719 181.988281 L 90.378906 182.28125 L 89.464844 182.707031 L 88.914062 182.964844 L 88.371094 183.210938 L 88.070312 183.351562 C 87.605469 183.558594 87.277344 183.695312 86.765625 183.695312 C 86.535156 183.375 86.535156 183.375 86.304688 182.949219 C 85.472656 181.519531 84.667969 180.6875 83.070312 180.15625 C 81.738281 179.960938 80.542969 180.027344 79.367188 180.71875 C 78.824219 181.132812 78.539062 181.597656 78.289062 182.226562 C 78.152344 183.390625 78.222656 184.167969 78.890625 185.140625 C 79.769531 186.074219 80.800781 186.652344 81.933594 187.222656 L 82.425781 187.476562 C 83.378906 187.960938 84.339844 188.417969 85.308594 188.863281 C 87.335938 189.792969 89.207031 190.941406 90.78125 192.539062 L 91.09375 192.847656 C 92.886719 194.734375 93.359375 197.105469 93.351562 199.617188 C 93.195312 202.34375 92.195312 204.980469 90.183594 206.871094 C 87.199219 209.367188 83.644531 210.011719 79.855469 209.753906 C 76.898438 209.445312 74.050781 208.0625 72.105469 205.792969 C 71.171875 204.605469 69.894531 202.953125 69.894531 201.386719 L 71.710938 200.472656 L 72.222656 200.214844 C 75.332031 198.652344 75.332031 198.652344 76 198.652344 C 76.253906 199.035156 76.253906 199.035156 76.523438 199.546875 C 77.515625 201.304688 78.730469 202.191406 80.660156 202.835938 C 82.070312 202.941406 83.4375 202.96875 84.675781 202.191406 C 85.339844 201.617188 85.742188 200.933594 85.839844 200.058594 C 85.890625 199.058594 85.742188 198.34375 85.15625 197.527344 C 84.226562 196.554688 83.207031 195.90625 82.003906 195.316406 L 81.027344 194.816406 L 80.015625 194.308594 C 75.914062 192.234375 75.914062 192.234375 74.554688 191.09375 L 74.167969 190.785156 C 72.324219 189.246094 71.097656 187.066406 70.859375 184.660156 C 70.6875 181.757812 71.25 178.953125 73.078125 176.617188 C 76.621094 172.945312 83.121094 172.050781 87.566406 174.523438 Z M 568.046875 175.964844 C 569.589844 177.40625 570.53125 179.136719 571.199219 181.121094 L 568.832031 182.230469 L 568.027344 182.605469 L 566.871094 183.148438 L 566.507812 183.320312 C 565.664062 183.707031 565.664062 183.707031 565.234375 183.648438 C 564.785156 183.476562 564.683594 183.1875 564.460938 182.769531 C 563.800781 181.605469 562.886719 180.65625 561.589844 180.214844 C 560.199219 179.972656 558.738281 179.984375 557.542969 180.796875 C 556.835938 181.507812 556.566406 182.191406 556.507812 183.179688 C 556.535156 184.292969 557.054688 185.023438 557.835938 185.773438 C 559.488281 187.089844 561.535156 187.957031 563.433594 188.84375 C 566.898438 190.464844 569.796875 192.34375 571.238281 196.027344 C 572.117188 198.707031 571.597656 201.949219 570.367188 204.414062 C 568.953125 206.867188 566.785156 208.4375 564.089844 209.269531 C 560.316406 210.246094 556.460938 209.941406 553.035156 208.03125 C 550.613281 206.503906 549.148438 204.308594 548.0625 201.710938 C 548.492188 201.207031 549.03125 200.945312 549.613281 200.65625 L 549.929688 200.5 L 550.589844 200.167969 L 551.59375 199.664062 L 552.234375 199.339844 L 552.535156 199.1875 C 553.132812 198.894531 553.667969 198.730469 554.332031 198.652344 L 554.492188 198.988281 C 555.375 200.742188 556.496094 201.957031 558.347656 202.675781 C 559.6875 203.113281 561.417969 202.992188 562.683594 202.394531 C 563.351562 201.976562 563.691406 201.484375 564.019531 200.765625 C 564.257812 199.691406 564.226562 198.800781 563.648438 197.847656 C 562.320312 195.8125 559.476562 194.855469 557.351562 193.828125 C 553.960938 192.179688 550.824219 190.160156 549.511719 186.429688 C 548.71875 183.980469 549.035156 180.972656 550.101562 178.675781 C 551.476562 176.121094 553.503906 174.605469 556.246094 173.734375 C 560.304688 172.554688 564.753906 173.246094 568.046875 175.964844 Z M 340.148438 173.882812 C 355.738281 173.882812 355.738281 173.882812 359.109375 176.292969 L 359.417969 176.507812 C 361.140625 177.824219 362.355469 180.207031 362.75 182.300781 C 363.164062 185.515625 362.9375 188.703125 361.058594 191.460938 C 358.792969 194.363281 356.164062 195.519531 352.523438 196.078125 L 347.378906 196.078125 L 347.378906 209.109375 L 340.148438 209.109375 Z M 347.378906 180.15625 L 347.378906 189.804688 C 351.265625 189.945312 351.265625 189.945312 354.367188 188.125 C 355.421875 186.980469 355.503906 185.773438 355.46875 184.277344 C 355.394531 183.488281 355.191406 182.910156 354.769531 182.246094 L 354.449219 181.734375 C 353.65625 180.84375 352.371094 180.382812 351.234375 180.15625 Z M 234.265625 175.972656 L 234.90625 176.617188 L 234.101562 179.140625 L 233.828125 180 L 233.433594 181.234375 L 233.308594 181.625 C 233.015625 182.53125 233.015625 182.53125 232.65625 182.890625 L 232.234375 182.636719 C 228.816406 180.621094 225.214844 179.535156 221.265625 180.535156 C 218.402344 181.398438 216.296875 183.328125 214.894531 185.929688 C 213.304688 189.238281 213.335938 192.914062 214.523438 196.339844 C 215.554688 198.867188 217.421875 200.929688 219.957031 202.003906 C 223.449219 203.339844 227.027344 202.996094 230.414062 201.535156 C 231.300781 201.121094 232.144531 200.617188 232.980469 200.101562 C 233.417969 200.539062 233.539062 201.046875 233.722656 201.621094 L 233.84375 201.984375 L 234.089844 202.738281 L 234.46875 203.890625 L 234.707031 204.628906 L 234.824219 204.976562 C 235.023438 205.601562 235.140625 206.066406 234.90625 206.695312 C 231.449219 209.601562 226.230469 210.039062 221.9375 209.71875 C 218.21875 209.335938 214.722656 207.90625 211.929688 205.410156 L 211.636719 205.183594 C 208.617188 202.855469 206.71875 198.535156 206.1875 194.855469 L 206.148438 194.472656 L 206.09375 194.058594 C 205.546875 189.117188 206.625 183.984375 209.730469 180.035156 C 209.980469 179.75 210.230469 179.46875 210.484375 179.191406 L 210.703125 178.953125 C 213.484375 175.9375 217.191406 174.003906 221.25 173.398438 L 221.597656 173.34375 C 225.972656 172.789062 230.523438 173.59375 234.265625 175.972656 Z M 502.59375 176.457031 C 502.230469 177.847656 501.800781 179.21875 501.359375 180.585938 L 501.15625 181.214844 L 500.664062 182.730469 C 499.984375 182.730469 499.515625 182.382812 498.9375 182.054688 C 495.695312 180.289062 492.371094 179.695312 488.773438 180.636719 C 486.167969 181.488281 484.175781 183.179688 482.796875 185.539062 C 481.175781 188.742188 480.941406 192.417969 482.042969 195.820312 C 483.128906 198.554688 484.90625 200.824219 487.648438 202.007812 C 491.207031 203.394531 494.730469 202.941406 498.175781 201.496094 C 498.914062 201.140625 499.605469 200.738281 500.296875 200.296875 L 500.664062 200.101562 C 500.984375 200.261719 500.984375 200.261719 501.199219 200.820312 L 501.4375 201.566406 L 501.566406 201.964844 L 501.835938 202.800781 L 502.246094 204.078125 L 502.503906 204.886719 L 502.628906 205.273438 C 502.914062 206.175781 502.914062 206.175781 502.914062 206.535156 C 502.566406 206.78125 502.226562 207.003906 501.859375 207.21875 L 501.53125 207.414062 C 497.003906 210.023438 491.511719 210.394531 486.507812 209.105469 C 482.183594 207.902344 478.445312 205.152344 476.203125 201.25 C 474.492188 198.1875 473.730469 195.019531 473.761719 191.527344 L 473.761719 191.175781 C 473.792969 186.078125 475.691406 181.566406 479.324219 177.953125 C 485.230469 172.347656 496.054688 171.3125 502.59375 176.457031 Z M 626.792969 173.882812 L 644.949219 173.882812 L 644.949219 180.476562 L 634.023438 180.476562 L 634.023438 188.035156 L 643.34375 188.035156 L 643.34375 194.472656 L 634.023438 194.472656 L 634.023438 202.675781 L 645.433594 202.675781 L 645.433594 209.109375 L 626.792969 209.109375 Z M 99.941406 173.882812 L 118.097656 173.882812 L 118.097656 180.476562 L 107.011719 180.476562 L 107.011719 188.035156 L 116.488281 188.035156 L 116.488281 194.472656 L 107.011719 194.472656 L 107.011719 202.675781 L 118.417969 202.675781 L 118.417969 209.109375 L 99.941406 209.109375 Z M 99.941406 173.882812 "/>
<path style=" stroke:none;fill-rule:nonzero;fill:rgb(3.921569%,40.784314%,35.294119%);fill-opacity:1;" d="M 164.691406 51.472656 L 164.851562 51.792969 L 164.667969 52.003906 L 163.726562 53.082031 L 163.328125 53.535156 C 159.503906 57.925781 156.171875 63.300781 156.496094 69.328125 C 156.988281 74.1875 159.464844 78.507812 161.839844 82.679688 C 168.476562 94.371094 171.511719 106.730469 170.15625 120.15625 L 169.832031 120.15625 L 169.78125 119.820312 C 167.941406 107.882812 163.355469 96.449219 156.980469 86.21875 L 156.710938 85.78125 C 154.96875 82.984375 153.09375 80.3125 151.105469 77.683594 C 146.136719 71.09375 146.136719 71.09375 146.535156 68.203125 C 147.347656 64.632812 151.070312 61.847656 153.765625 59.675781 L 154.308594 59.234375 C 155.78125 58.035156 157.300781 56.902344 158.835938 55.78125 L 160.796875 54.339844 Z M 164.691406 51.472656 "/>
<path style=" stroke:none;fill-rule:nonzero;fill:rgb(74.509805%,58.823532%,36.078432%);fill-opacity:1;" d="M 729.304688 173.882812 L 736.535156 173.882812 L 736.535156 202.511719 L 747.945312 202.511719 L 747.945312 209.109375 L 729.304688 209.109375 Z M 435.589844 173.882812 L 442.820312 173.882812 L 442.820312 202.511719 L 454.230469 202.511719 L 454.230469 209.109375 L 435.589844 209.109375 Z M 241.496094 173.882812 L 248.726562 173.882812 L 248.726562 209.109375 L 241.496094 209.109375 Z M 192.328125 173.882812 L 199.558594 173.882812 L 199.558594 209.109375 L 192.328125 209.109375 Z M 460.175781 173.882812 L 467.242188 173.882812 L 467.242188 209.109375 L 460.175781 209.109375 Z M 383.1875 164.855469 L 384.035156 164.855469 L 384.523438 164.859375 L 385.019531 164.859375 L 386.59375 164.863281 L 387.660156 164.867188 L 390.28125 164.875 C 390.019531 165.640625 389.597656 166.257812 389.140625 166.917969 L 388.898438 167.277344 L 388.132812 168.402344 L 387.617188 169.15625 L 386.457031 170.855469 C 386.234375 171.183594 386.234375 171.183594 385.976562 171.703125 C 385.589844 172.148438 385.539062 172.175781 384.988281 172.222656 C 384.734375 172.222656 384.476562 172.214844 384.222656 172.207031 L 383.816406 172.203125 L 382.527344 172.171875 L 381.65625 172.160156 L 379.515625 172.113281 L 381.925781 166.773438 L 382.160156 166.257812 L 382.378906 165.78125 L 382.570312 165.355469 C 382.804688 164.878906 382.804688 164.878906 383.1875 164.855469 Z M 383.1875 164.855469 "/>
</g>
</svg>
